<?xml version="1.0" encoding="utf-8"?>
<!-- Generator: Adobe Illustrator 19.0.0, SVG Export Plug-In . SVG Version: 6.00 Build 0)  -->
<svg version="1.1" id="图层_1" xmlns="http://www.w3.org/2000/svg" xmlns:xlink="http://www.w3.org/1999/xlink" x="0px" y="0px"
	 viewBox="0 0 800 100" style="enable-background:new 0 0 800 100;" xml:space="preserve">
<style type="text/css">
	.st0{fill:#49B44F;}
	.st1{fill:#666666;}
</style>
<path id="XMLID_1_" class="st0" d="M91.7,44.5L57.9,9.2C55.8,7,53,5.8,49.9,5.8c-3,0-5.8,1.2-7.9,3.4L8.2,44.5
	c-3.5,3.6-3,6.8-2.5,8.1c0.4,0.9,1.8,3.5,5.8,3.5h5v27.1c0,6.2,4.4,11.9,10.7,11.9h5.7h8.7v-6.4l0-22.3c0-3.1-0.5-4.8,2.7-4.8h5.7
	h5.7c3.1,0,2.7,1.7,2.7,4.8v22.3v6.4H67h5.7c6.3,0,10.7-5.8,10.7-11.9V56.1h5c4,0,5.4-2.6,5.8-3.5C94.8,51.3,95.2,48.1,91.7,44.5z"
	/>
<g id="XMLID_4_">
	<path id="XMLID_41_" class="st1" d="M149.7,7.8c2.5,0,4.8,1,6.5,2.8l33.9,35.2c3.1,3.2,2.3,5.5,2.1,5.9c-0.7,1.5-2,2.3-4,2.3h-5
		c-1.1,0-2,0.9-2,2v27.1c0,4.8-3.3,9.9-8.7,9.9h-5.7h-6.7v-4.4V66.4c0-0.4,0-0.7,0-1c0-1.7,0.1-3.4-1.1-4.6
		c-1.1-1.1-2.5-1.2-3.6-1.2h-5.7H144c-1,0-2.5,0.1-3.6,1.2c-1.2,1.2-1.2,2.8-1.1,4.6c0,0.3,0,0.7,0,1v22.3v4.4h-6.7h-5.7
		c-5.4,0-8.7-5.2-8.7-9.9V56.1c0-1.1-0.9-2-2-2h-5c-2,0-3.3-0.8-4-2.3c-0.2-0.4-1-2.7,2.1-5.9l33.9-35.2
		C145,8.8,147.3,7.8,149.7,7.8 M149.7,5.8c-3,0-5.8,1.2-7.9,3.4l-33.9,35.2c-3.5,3.6-3,6.8-2.5,8.1c0.4,0.9,1.8,3.5,5.8,3.5h5v27.1
		c0,6.2,4.4,11.9,10.7,11.9h5.7h8.7v-6.4V66.4c0-3.1-0.5-4.8,2.7-4.8h5.7h5.7c3.1,0,2.7,1.7,2.7,4.8v22.3v6.4h8.7h5.7
		c6.3,0,10.7-5.8,10.7-11.9V56.1h5c4,0,5.4-2.6,5.8-3.5c0.6-1.3,1-4.5-2.5-8.1L157.7,9.2C155.5,7,152.7,5.8,149.7,5.8L149.7,5.8z"/>
</g>
<g id="XMLID_8_">
	<g id="XMLID_28_">
		<path id="XMLID_104_" class="st0" d="M238.7,9.7h-24.8c-4.2,0-7.6,3.5-7.6,7.7v25c0,4.2,3.4,7.7,7.6,7.7h24.8
			c4.2,0,7.6-3.5,7.6-7.7v-25C246.3,13.2,242.9,9.7,238.7,9.7z"/>
	</g>
	<g id="XMLID_24_">
		<path id="XMLID_45_" class="st0" d="M272.1,6.5c1.5,0,2.9,0.6,4,1.7l17.5,17.7c2.2,2.2,2.2,5.9,0,8.1L276,51.7
			c-1.1,1.1-2.5,1.7-4,1.7c-1.5,0-2.9-0.6-4-1.7L250.6,34c-2.2-2.2-2.2-5.9,0-8.1l17.5-17.7C269.1,7.1,270.6,6.5,272.1,6.5
			 M272.1,4.5c-2,0-3.9,0.8-5.4,2.3l-17.5,17.7c-3,3-3,7.9,0,10.9l17.5,17.7c1.5,1.5,3.4,2.3,5.4,2.3c2,0,3.9-0.8,5.4-2.3L295,35.4
			c3-3,3-7.9,0-10.9L277.4,6.8C276,5.3,274,4.5,272.1,4.5L272.1,4.5z"/>
	</g>
	<g id="XMLID_10_">
		<path id="XMLID_105_" class="st0" d="M238.7,56h-24.8c-4.2,0-7.6,3.5-7.6,7.7v25c0,4.2,3.4,7.7,7.6,7.7h24.8
			c4.2,0,7.6-3.5,7.6-7.7v-25C246.3,59.4,242.9,56,238.7,56z"/>
	</g>
	<g id="XMLID_9_">
		<path id="XMLID_106_" class="st0" d="M284.4,56h-24.8c-4.2,0-7.6,3.5-7.6,7.7v25c0,4.2,3.4,7.7,7.6,7.7h24.8
			c4.2,0,7.6-3.5,7.6-7.7v-25C292.1,59.4,288.6,56,284.4,56z"/>
	</g>
</g>
<g id="XMLID_7_">
	<g id="XMLID_40_">
		<path id="XMLID_52_" class="st1" d="M337,12.7c3.1,0,5.6,2.6,5.6,5.7v25c0,3.1-2.5,5.7-5.6,5.7h-24.8c-3.1,0-5.6-2.6-5.6-5.7v-25
			c0-3.1,2.5-5.7,5.6-5.7H337 M337,10.7h-24.8c-4.2,0-7.6,3.5-7.6,7.7v25c0,4.2,3.4,7.7,7.6,7.7H337c4.2,0,7.6-3.5,7.6-7.7v-25
			C344.6,14.2,341.2,10.7,337,10.7L337,10.7z"/>
	</g>
	<g id="XMLID_39_">
		<path id="XMLID_90_" class="st1" d="M393.3,24.5L375.7,6.8c-3-3-7.8-3-10.8,0l-17.5,17.7c-3,3-3,7.9,0,10.9L365,53.1
			c3,3,7.8,3,10.8,0l17.5-17.7C396.2,32.4,396.2,27.5,393.3,24.5z"/>
	</g>
	<g id="XMLID_37_">
		<path id="XMLID_62_" class="st1" d="M337,58c3.1,0,5.6,2.6,5.6,5.7v25c0,3.1-2.5,5.7-5.6,5.7h-24.8c-3.1,0-5.6-2.6-5.6-5.7v-25
			c0-3.1,2.5-5.7,5.6-5.7H337 M337,56h-24.8c-4.2,0-7.6,3.5-7.6,7.7v25c0,4.2,3.4,7.7,7.6,7.7H337c4.2,0,7.6-3.5,7.6-7.7v-25
			C344.6,59.4,341.2,56,337,56L337,56z"/>
	</g>
	<g id="XMLID_36_">
		<path id="XMLID_78_" class="st1" d="M382.7,58c1.5,0,2.9,0.6,4,1.7c1.1,1.1,1.7,2.5,1.7,4v25c0,3.1-2.5,5.7-5.6,5.7H358
			c-3.1,0-5.6-2.6-5.6-5.7v-25c0-3.1,2.5-5.7,5.6-5.7H382.7 M382.7,56H358c-4.2,0-7.6,3.5-7.6,7.7v25c0,4.2,3.4,7.7,7.6,7.7h24.8
			c4.2,0,7.6-3.5,7.6-7.7v-25C390.4,59.4,386.9,56,382.7,56L382.7,56z"/>
	</g>
</g>
<g id="XMLID_6_">
	<g id="XMLID_16_">
		<path id="XMLID_91_" class="st0" d="M437.7,74.3L437.7,74.3c-5,0-9,4.1-9,9c0,5,4.1,9,9,9v0c5,0,9-4,9-9
			C446.7,78.4,442.7,74.3,437.7,74.3z"/>
	</g>
	<path id="XMLID_13_" class="st0" d="M482.9,65.2H474h0h-36.3v5.1H474h0h8.9C486.6,70.3,486.6,65.2,482.9,65.2z"/>
	<path id="XMLID_12_" class="st0" d="M491,18.9h-17h0h-36.3v2.6h0v-2.6l-14.1,0l-1.6-8.2c-0.2-1-1.5-2.1-2.5-2.1h-11.9h0
		c-3.7,0-3.6,5.1,0,5.1h9.7L428,68.2c0.2,1,1.5,2.1,2.5,2.1h7.2v-5.1h-5.1l-2.1-10.8h7.2v-2.3h0v2.3H474h0h8.8c1,0,2.2-1,2.5-1.9
		l8.2-30.4C493.9,20.6,492.6,18.9,491,18.9z"/>
	<g id="XMLID_11_">
		<path id="XMLID_100_" class="st0" d="M474,74.3L474,74.3c-5,0-9,4.1-9,9c0,5,4.1,9,9,9v0c5,0,9-4,9-9C483,78.4,479,74.3,474,74.3z
			"/>
	</g>
</g>
<g id="XMLID_5_">
	<g id="XMLID_56_">
		<path id="XMLID_86_" class="st1" d="M538.5,76.3c3.8,0.1,6.9,3.2,6.9,7c0,3.9-3.1,7-7,7c0,0-0.1,0-0.1,0c-3.8-0.1-6.9-3.2-6.9-7
			c0-3.9,3.1-7,7-7C538.5,76.3,538.5,76.3,538.5,76.3 M538.4,74.3L538.4,74.3c-5,0-9,4.1-9,9c0,5,4.1,9,9,9v0c5,0,9-4,9-9
			C547.4,78.4,543.4,74.3,538.4,74.3L538.4,74.3z"/>
	</g>
	<g id="XMLID_46_">
		<path id="XMLID_82_" class="st1" d="M520.2,10.6c0.2,0,0.5,0.3,0.6,0.5l1.6,8.2l0.3,1.6h1.6h14.1v-0.4l0,0v0.4h36.3h17
			c0.2,0,0.4,0.1,0.4,0.2c0.1,0.1,0.2,0.3,0.1,0.5l-8.1,30.3c-0.1,0.2-0.4,0.4-0.6,0.5h-8.7h-36.3v0.7h0v-0.7h-7.2h-2.4l0.5,2.4
			l2.1,10.8l0.3,1.6h1.6h50.6c0.3,0,0.6,0.3,0.6,0.6c0,0.3-0.3,0.6-0.6,0.6h-52.6c-0.2-0.1-0.5-0.3-0.6-0.5l-10.6-54.5l-0.3-1.6
			h-1.6h-9.7c-0.3,0-0.7-0.1-0.7-0.6c0-0.5,0.4-0.6,0.7-0.6H520.2 M520.2,8.6h-11.8h0c-3.7,0-3.6,5.1,0,5.1h9.7l10.6,54.5
			c0.2,1,1.5,2.1,2.5,2.1h52.7c1.4,0,2.6-1.1,2.6-2.6v0c0-1.4-1.1-2.6-2.6-2.6h-50.6l-2.1-10.8h7.2v-1.3l0,1v0.3h36.3h0h8.8
			c1,0,2.2-1,2.5-1.9l8.2-30.4c0.4-1.6-0.8-3.2-2.5-3.2h-17h0h-36.3v0.6l0,1v-1.6h-14.1l-1.6-8.2C522.5,9.6,521.4,8.6,520.2,8.6
			L520.2,8.6z"/>
	</g>
	<g id="XMLID_14_">
		<path id="XMLID_81_" class="st1" d="M574.8,76.3c3.8,0.1,6.9,3.2,6.9,7c0,1.9-0.7,3.6-2.1,4.9c-1.3,1.3-3.1,2.1-4.9,2.1
			c0,0-0.1,0-0.1,0c-3.8-0.1-6.9-3.2-6.9-7c0-3.9,3.1-7,7-7C574.7,76.3,574.8,76.3,574.8,76.3 M574.7,74.3L574.7,74.3
			c-5,0-9,4.1-9,9c0,5,4.1,9,9,9v0c5,0,9-4,9-9C583.7,78.4,579.7,74.3,574.7,74.3L574.7,74.3z"/>
	</g>
</g>
<g id="XMLID_3_">
	<path id="XMLID_49_" class="st0" d="M650,96.1c-27.7,0-40-5.8-40-8c0-15.1,8.4-29,21.3-36c0.3-0.1,0.5-0.3,0.7-0.4
		c5.2,3.7,11.5,6.4,18.3,6.4c6.8,0,13.1-2.8,18.3-6.4c0.6,0.3,1.2,0.7,2,1.1c11.9,7.3,19.6,20.7,19.6,35.2
		C690,90.3,677.7,96.1,650,96.1L650,96.1z M650,4.9c-14.1,0-25.6,11.5-25.6,25.7c0,14.2,11.5,25.7,25.6,25.7
		c14.1,0,25.6-11.5,25.6-25.7C675.6,16.4,664.1,4.9,650,4.9z M635.8,40.4c-0.4,0.4-0.9,0.6-1.4,0.6c-0.5,0-1-0.2-1.4-0.6
		c-0.4-0.4-0.6-0.9-0.6-1.4c0-0.5,0.2-1,0.6-1.4c0.7-0.7,2.1-0.7,2.8,0c0.4,0.4,0.6,0.9,0.6,1.4C636.4,39.5,636.2,40,635.8,40.4z
		 M651.6,15.3c-8.8,0-15.9,7.2-15.9,15.9c0,1.1-0.9,2-2,2c-1.1,0-2-0.9-2-2c0-11,8.9-19.9,19.9-19.9c1.1,0,2,0.9,2,2
		C653.6,14.4,652.7,15.3,651.6,15.3z"/>
</g>
<g id="XMLID_2_">
	<g id="XMLID_74_">
		<path id="XMLID_97_" class="st1" d="M731.8,54c6,4,12.3,6.1,18.4,6.1c6.1,0,12.4-2.1,18.4-6.1c0.2,0.1,0.5,0.3,0.8,0.5
			c11.4,7,18.5,19.6,18.6,33.1c-1.8,1.8-13.7,6.4-38,6.4c-24.4,0-36.2-4.6-38-6.4C712.1,73.8,719.8,60.7,731.8,54 M731.9,51.7
			c-0.2,0.1-0.5,0.2-0.7,0.4c-12.8,7-21.3,20.9-21.3,36c0,2.2,12.3,8,40,8c27.7,0,40-5.8,40-8c0-14.5-7.7-27.9-19.6-35.2
			c-0.8-0.5-1.4-0.8-2-1.1c-5.2,3.6-11.5,6.4-18.3,6.4C743.4,58.1,737.1,55.4,731.9,51.7L731.9,51.7z"/>
	</g>
	<g id="XMLID_69_">
		<path id="XMLID_92_" class="st1" d="M750,6.9c13,0,23.6,10.6,23.6,23.7c0,13.1-10.6,23.7-23.6,23.7c-13,0-23.6-10.6-23.6-23.7
			C726.3,17.6,736.9,6.9,750,6.9 M750,4.9c-14.1,0-25.6,11.5-25.6,25.7c0,14.2,11.5,25.7,25.6,25.7c14.1,0,25.6-11.5,25.6-25.7
			C775.6,16.4,764.1,4.9,750,4.9L750,4.9z"/>
	</g>
	<g id="XMLID_64_">
		<path id="XMLID_95_" class="st1" d="M735.8,40.4c-0.4,0.4-0.9,0.6-1.4,0.6c-0.5,0-1-0.2-1.4-0.6c-0.4-0.4-0.6-0.9-0.6-1.4
			c0-0.5,0.2-1,0.6-1.4c0.7-0.7,2.1-0.7,2.8,0c0.4,0.4,0.6,0.9,0.6,1.4C736.4,39.5,736.2,40,735.8,40.4z"/>
	</g>
	<g id="XMLID_63_">
		<path id="XMLID_93_" class="st1" d="M751.6,15.3c-8.8,0-15.9,7.2-15.9,15.9c0,1.1-0.9,2-2,2c-1.1,0-2-0.9-2-2
			c0-11,8.9-19.9,19.9-19.9c1.1,0,2,0.9,2,2C753.6,14.4,752.7,15.3,751.6,15.3z"/>
	</g>
</g>
</svg>
