<?xml version="1.0" encoding="utf-8"?>
<!-- Generator: Adobe Illustrator 19.0.0, SVG Export Plug-In . SVG Version: 6.00 Build 0)  -->
<svg version="1.1" id="图层_1" xmlns="http://www.w3.org/2000/svg" xmlns:xlink="http://www.w3.org/1999/xlink" x="0px" y="0px"
	 viewBox="0 0 660 100" style="enable-background:new 0 0 660 100;" xml:space="preserve">
<style type="text/css">
	.st0{fill:#787878;}
	.st1{fill-rule:evenodd;clip-rule:evenodd;fill:#43AC43;}
	.st2{fill-rule:evenodd;clip-rule:evenodd;fill:#FFFFFF;}
	.st3{fill-rule:evenodd;clip-rule:evenodd;fill:#787878;}
</style>
<g id="XMLID_2_">
	<g id="XMLID_10_">
		<path id="XMLID_37_" class="st0" d="M63,12.4c12.3,1.6,21.1,7.4,26.2,17.3c2.7,5.1,3.7,10.2,4.1,13.3H63V12.4 M60,9.1v37h36.5
			C96.5,46.1,96.6,11.7,60,9.1L60,9.1z"/>
	</g>
	<g id="XMLID_3_">
		<path id="XMLID_43_" class="st0" d="M46.1,21.7v34.2v3h3h33.7c-1.5,17.5-16,31.3-33.7,31.3c-18.6,0-33.8-15.4-33.8-34.3
			C15.3,38,28.9,23.2,46.1,21.7 M49.1,18.5c-20.3,0-36.8,16.7-36.8,37.3c0,20.6,16.5,37.3,36.8,37.3c20.3,0,36.8-16.7,36.8-37.3
			H49.1V18.5L49.1,18.5z"/>
	</g>
</g>
<g id="XMLID_6_">
	<g id="XMLID_15_">
		<path id="XMLID_47_" class="st1" d="M168.9,46.1h36.5c0,0,0.1-34.3-36.5-37V46.1z"/>
	</g>
	<g id="XMLID_7_">
		<path id="XMLID_48_" class="st1" d="M194.9,55.8c0,20.6-16.5,37.3-36.8,37.3c-20.3,0-36.8-16.7-36.8-37.3
			c0-20.6,16.5-37.3,36.8-37.3v37.3H194.9L194.9,55.8L194.9,55.8z"/>
	</g>
</g>
<g id="XMLID_33_">
	<path id="XMLID_8_" class="st1" d="M300.9,90h-51.9c-7.1,0-12.9-5.8-12.9-12.9V25.2c0-7.1,5.8-12.9,12.9-12.9h51.9
		c7.1,0,12.9,5.8,12.9,12.9v51.9C313.8,84.2,308,90,300.9,90z"/>
	<path id="XMLID_9_" class="st2" d="M313.8,63.7h-32.1c-6.9,0-12.4-5.6-12.4-12.4V51c0-6.9,5.6-12.4,12.4-12.4h32.1V63.7z"/>
	<circle id="XMLID_5_" class="st1" cx="283.6" cy="51.1" r="4.8"/>
</g>
<g id="XMLID_13_">
	<g id="XMLID_24_">
		<g id="XMLID_54_">
			<path id="XMLID_56_" class="st0" d="M410.4,15.2c5.5,0,9.9,4.5,9.9,9.9v51.9c0,5.5-4.5,9.9-9.9,9.9h-51.9c-5.5,0-9.9-4.5-9.9-9.9
				V25.2c0-5.5,4.5-9.9,9.9-9.9H410.4 M410.4,12.2h-51.9c-7.1,0-12.9,5.8-12.9,12.9v51.9c0,7.1,5.8,12.9,12.9,12.9h51.9
				c7.1,0,12.9-5.8,12.9-12.9V25.2C423.4,18,417.6,12.2,410.4,12.2L410.4,12.2z"/>
		</g>
	</g>
	<g id="XMLID_21_">
		<g id="XMLID_64_">
			<path id="XMLID_65_" class="st0" d="M420.4,41.5v19.2h-29.1c-5.2,0-9.4-4.2-9.4-9.4V51c0-5.2,4.2-9.4,9.4-9.4H420.4 M423.4,38.5
				h-32.1c-6.9,0-12.4,5.6-12.4,12.4v0.4c0,6.9,5.6,12.4,12.4,12.4h32.1V38.5L423.4,38.5z"/>
		</g>
	</g>
	<circle id="XMLID_20_" class="st3" cx="393.1" cy="51.1" r="4.8"/>
</g>
<g id="XMLID_26_">
	<g id="XMLID_31_">
		<path id="XMLID_63_" class="st1" d="M489.6,12.6c-2.8,0-2.3,1.2-3.8,1.4c-1.5,0.2,0.3-0.6-4.2,0.2c-4.5,0.8-6,6.5-6.2,8.6
			c-0.2,2.1-0.3,8-0.1,11.1c0.4,1.9-1.1,1.9-1.1,1.9c-2.7-0.2-1.5,8-1.5,8c0.4,2-0.1,3,3.8,4.6c1.9,5.3,6.8,8.1,6.8,8.1
			s0-0.5,0.1,1.9c-0.4-0.2,3.3,6.2-9,8c-12.3,1.8-14.6,9.5-17,11.7c-2.3,2.2-2.2,12.8-2.2,12.8l79.3,0c0,0-0.6-10.6-2.9-12.8
			c-2.3-2.2-4.8-9.9-17.1-11.7c-11.9-1.7-8.1-8-8.2-8.4c0-1,0.2-1.2,0.2-1.2s4.2-3.2,6.1-8.5c3-1.8,4.1-2.1,4.6-4.2
			c0,0,0.9-8.3-1.9-8.2c0,0-1.3,0.4-0.9-1.5c0.4-1.9,0.3-7.8,0.1-9.8c-0.2-2.1,0.1-8.1-4.4-8.9c-3-0.6-3.4,0-4.9-0.2
			c-1.5-0.2-5.1-4-7.9-4L489.6,12.6L489.6,12.6z"/>
	</g>
</g>
<g id="XMLID_34_">
	<g id="XMLID_35_">
		<path id="XMLID_60_" class="st0" d="M607.3,14.4c0.8,0.1,2.6,1.4,3.5,2c1.4,1,2.6,1.8,3.9,2c0.4,0.1,0.7,0.1,1.1,0.1
			c0.4,0,0.7,0,1-0.1c0.3,0,0.5,0,0.8,0c0.5,0,1.1,0.1,1.9,0.2c1.3,0.2,1.7,2.2,1.8,5.1c0,0.4,0,0.8,0.1,1.1c0.2,2.3,0.3,7.6,0,8.9
			c-0.3,1.5-0.1,2.8,0.7,3.8c0.5,0.6,1.2,1.1,2,1.3c0.2,1.1,0.3,3.1,0.1,4.8c-0.1,0.3-0.3,0.4-1.7,1.3c-0.4,0.3-0.9,0.6-1.5,0.9
			l-0.9,0.6l-0.4,1c-1.5,4.3-5,7.1-5.1,7.2l-0.5,0.4l-0.3,0.6c-0.3,0.5-0.4,1.2-0.5,2.1c-0.4,1.1-1.2,3.9,0.5,6.7
			c1.6,2.7,5,4.4,10.2,5.1c8.4,1.2,11.4,5.4,13.5,8.4c0.7,0.9,1.2,1.8,1.9,2.4c0.6,0.8,1.3,4,1.7,7.6l-73,0c0.2-3.5,0.7-6.8,1.3-7.6
			c0.7-0.7,1.3-1.5,1.9-2.5c2.1-3,5-7.2,13.3-8.4c5.3-0.8,8.8-2.4,10.5-5.1c0.3-0.4,0.5-0.8,0.7-1.2l0.5,0.3l-0.1-1.9
			c0.2-1,0.1-2.1-0.1-3.2c-0.1-1.9-0.1-4.1-2.1-4.7c-1.1-0.8-3.8-2.9-5-6.2l-0.5-1.3l-1.3-0.5c-1.1-0.4-1.6-0.7-1.7-0.9
			c0-0.1-0.1-0.3-0.1-0.5c0-0.3-0.1-0.6-0.1-0.9c-0.2-1.7-0.3-3.7-0.1-4.8c0.7-0.2,1.4-0.6,1.9-1.3c0.6-0.7,1.1-1.9,0.8-3.7
			c-0.1-3.1-0.1-8.6,0.1-10.4c0.1-1.4,1.3-5.5,3.8-5.9c1.2-0.2,1.8-0.3,2.1-0.3c0.3,0.1,0.7,0.2,1.1,0.2c0.3,0,0.5,0,0.8-0.1
			c1.5-0.2,2.3-0.9,2.7-1.3c0,0,0.1,0,0.1-0.1c0.1,0,0.3,0,0.6,0h0.2l0.2,0L607.3,14.4 M607.2,11.4l-7.6,1.2c-2.8,0-2.3,1.2-3.8,1.4
			c-0.2,0-0.3,0-0.4,0c-0.4,0-0.3-0.2-0.9-0.2c-0.4,0-1.2,0.1-2.8,0.4c-4.5,0.8-6,6.5-6.2,8.6c-0.2,2.1-0.3,8-0.1,11.1
			c0.4,1.9-1.1,1.9-1.1,1.9c0,0-0.1,0-0.1,0c-2.6,0-1.4,8-1.4,8c0.4,2-0.1,3,3.8,4.6c1.9,5.3,6.8,8.1,6.8,8.1s0,0,0,0
			c0,0,0,0.3,0.1,1.9c0,0,0,0,0,0c-0.3,0,3.1,6.2-9,8c-12.3,1.8-14.6,9.5-17,11.7c-2.3,2.2-2.2,12.8-2.2,12.8l79.3,0
			c0,0-0.6-10.6-2.9-12.8c-2.3-2.2-4.8-9.9-17.1-11.7c-11.9-1.7-8.1-8-8.2-8.4c0-1,0.2-1.2,0.2-1.2s4.2-3.2,6.1-8.5
			c3-1.8,4.1-2.1,4.6-4.2c0,0,0.9-8.2-1.9-8.2c0,0,0,0,0,0c0,0-0.1,0-0.3,0c-0.4,0-0.9-0.2-0.6-1.5c0.4-1.9,0.3-7.8,0.1-9.8
			c-0.2-2.1,0.1-8.1-4.4-8.9c-1.1-0.2-1.9-0.3-2.4-0.3c-0.8,0-1.2,0.1-1.8,0.1c-0.2,0-0.4,0-0.7,0C613.6,15.2,610,11.4,607.2,11.4
			L607.2,11.4z"/>
	</g>
</g>
</svg>
